#!OML:ASF E:/inclinewalkrobotboard/Project1/Captureday1/Session1/subject1.ASF
:FULLY-SPECIFIED
:DEGREES
113
root 0 0 0 -0.3934446682539162 -2.025267944606182 -3.8766707578848187
lowerback 16.443988380708976 1.116269018591525 -0.10735815941492499
upperback 0.7139501619341931 1.4652330820419042 0.3339866554747998
thorax -8.52969134426141 0.6947564166916852 0.05086970375054578
lowerneck -7.462557041003093 -3.277463051950762 1.253896261735937
upperneck -5.50468407847281 -4.2637306442049425 1.7875331965530519
head -0.5709117279353553 -2.2022347871677956 0.2565403643865368
rclavicle -3.786093994880189E-16 1.4935780889723697E-17
rhumerus 12.031810511552273 0.4532266885943592 -39.50709626801495
rradius 118.60996381550643
rwrist -30.728308764260564
rhand -11.695709865662513 -36.4495149123519
rfingers 7.125019999999963
rthumb 14.388562216717814 -65.86850049311529
lclavicle -4.1827935849723726E-16 -4.715887777091897E-16
lhumerus -43.23802049699939 -0.3933506198644996 83.13494421776409
lradius 45.12806174687056
lwrist 1.999327028463048
lhand -15.702508467859058 -11.834258061034005
lfingers 7.125019999999931
lthumb 10.445171830206847 17.289765439570317
rfemur -2.8188615247717665 1.049391791110746 5.637875521797252
rtibia 8.439871948244438
rfoot -1.5897888080564218 -1.3760177270534495
rtoes 0.8085283473623317
lfemur -6.526076319997162 -3.5622164783432795 -12.259671521059337
ltibia 27.42998368365358
lfoot -19.22242919690115 7.931760699522615
ltoes -43.17692030448296
114
root 0 0 0 -0.39256513486266875 -2.025267833016585 -3.8775626151065974
lowerback 16.443945586499 1.1164862472326802 -0.10707781831522456
upperback 0.7134104774553135 1.465482516907689 0.33366323828823063
thorax -8.530202855585689 0.6948919411683256 0.050324599116359336
lowerneck -7.460256863949603 -3.2772177257867927 1.2549830386933443
upperneck -5.509183928816039 -4.263600791201316 1.7878398260839976
head -0.5729911956829801 -2.202162871011935 0.2565943054705042
rclavicle -3.784463158512143E-16 1.529098982224461E-17
rhumerus 12.03938818833312 0.4617737420145964 -39.498514727621185
rradius 118.63297803865072
rwrist -30.73907483589194
rhand -11.692540212786017 -36.469839181503254
rfingers 7.125019999999963
rthumb 14.39155500386278 -65.88825725055501
lclavicle -4.179887841289359E-16 -4.710949782460882E-16
lhumerus -43.24318149099358 -0.3932655612419239 83.13590504384548
lradius 45.13551568291067
lwrist 1.9965205502616201
lhand -15.6965035743957 -11.853313024078801
lfingers 7.125019999999931
lthumb 10.450872042218336 17.27160362727505
rfemur -2.8179002273057066 1.0490927356575492 5.636075719372261
rtibia 8.436638138141126
rfoot -1.5894647359734866 -1.375568466219491
rtoes 0.808172679272932
lfemur -6.524476713579306 -3.563409695718115 -12.255977219938387
ltibia 27.426503734621264
lfoot -19.229132187017832 7.937613352309016
ltoes -43.19632443506125
115
root 0 0 0 -0.3918538015967513 -2.025225349973706 -3.878427262177167
lowerback 16.443589653956217 1.1169204025365493 -0.10668485861644117
upperback 0.7128851529024489 1.4660578427388902 0.33331833592551674
thorax -8.530503638923177 0.6951764707180496 0.049667400115589344
lowerneck -7.45855236714188 -3.277265031505323 1.2555378354707925
upperneck -5.511621326399975 -4.263948367955286 1.78863329417227
head -0.5742286492562751 -2.202262409965272 0.25681225171423405
rclavicle -3.7836407520041495E-16 1.5528261937612576E-17
rhumerus 12.044566014925849 0.4676398291610724 -39.49261789870037
rradius 118.64890581210906
rwrist -30.74643517609361
rhand -11.690351980039587 -36.48398676556031
rfingers 7.125019999999963
rthumb 14.393627685655796 -65.90197232577273
lclavicle -4.1759087674057893E-16 -4.705987764914171E-16
lhumerus -43.24838122624932 -0.39311973667740907 83.13685787318474
lradius 45.142880500087706
lwrist 1.9936415851527562
lhand -15.690475295881367 -11.872407780961145
lfingers 7.125019999999931
lthumb 10.456605456343999 17.253409863491164
rfemur -2.816185070787543 1.0484689693330416 5.632653894478448
rtibia 8.431253612509096
rfoot -1.588598505800947 -1.3747296515724474
rtoes 0.8075878109645898
lfemur -6.522793617439955 -3.5646101591285655 -12.252339857356978
ltibia 27.42294098763302
lfoot -19.235821374386923 7.943429901456868
ltoes -43.21558525676346
116
root 0 0 0 -0.3936515724934997 -2.02478146492771 -3.8783160203968503
lowerback 16.444183316044438 1.11955863450707 -0.10549191333114194
upperback 0.713874709569227 1.4698831391058376 0.3328942344279118
thorax -8.52934884374002 0.6969725148544659 0.04810035369386145
lowerneck -7.46359829766934 -3.2810669650767874 1.249991208402876
upperneck -5.496925455363645 -4.269812999961868 1.7940671194627835
head -0.5682909475832449 -2.2045566098710254 0.25864716922276243
rclavicle -3.776208861679086E-16 1.463888845046062E-17
rhumerus 12.039325046848255 0.44449805183834457 -39.50445544622099
rradius 118.60544257282852
rwrist -30.72585485167185
rhand -11.70030627699144 -36.43085072489755
rfingers 7.125019999999963
rthumb 14.38450465823857 -65.85022858877807
lclavicle -4.191447805491769E-16 -4.7037582642093E-16
lhumerus -43.2411001124969 -0.39250203486054436 83.13663437729788
lradius 45.13097917519778
lwrist 1.9952976671553244
lhand -15.697841520340239 -11.849549146513441
lfingers 7.125019999999931
lthumb 10.44976645778754 17.275193842186425
rfemur -2.809212414746445 1.0459293795720015 5.619184678244192
rtibia 8.411502024134569
rfoot -1.583880500241834 -1.3710649797733723
rtoes 0.8061601618207317
lfemur -6.525237582263979 -3.56295620620316 -12.257707889890273
ltibia 27.428304360263482
lfoot -19.22620194626193 7.935210912583289
ltoes -43.187920953575954
